PathFileType	4	(X/Y/Z)	1_2_49_p1_0-369_filt_butterworth.trc
DataRate	CameraRate	NumFrames	NumMarkers	Units	OrigDataRate	OrigDataStartFrame	OrigNumFrames
59.0	59.0	5	27	m	59.0	184	369
Frame#	Time	RHip			RKnee			RAnkle			RBigToe			RSmallToe			RHeel			LHip			LKnee			LAnkle			LBigToe			LSmallToe			LHeel			Neck			Head			Nose			RShoulder			RElbow			RWrist			RThumb			RIndex			RPinky			LShoulder			LElbow			LWrist			LThumb			LIndex			LPinky			
		X1	Y1	Z1	X2	Y2	Z2	X3	Y3	Z3	X4	Y4	Z4	X5	Y5	Z5	X6	Y6	Z6	X7	Y7	Z7	X8	Y8	Z8	X9	Y9	Z9	X10	Y10	Z10	X11	Y11	Z11	X12	Y12	Z12	X13	Y13	Z13	X14	Y14	Z14	X15	Y15	Z15	X16	Y16	Z16	X17	Y17	Z17	X18	Y18	Z18	X19	Y19	Z19	X20	Y20	Z20	X21	Y21	Z21	X22	Y22	Z22	X23	Y23	Z23	X24	Y24	Z24	X25	Y25	Z25	X26	Y26	Z26	X27	Y27	Z27	
184	3.1186440677966103	0.3720561941638401	0.8998194376144883	0.3036362686711531	0.37777230733988293	0.4772635635417651	0.3297603471468876	0.3757853947969793	0.02625155678399315	0.417655046115461	0.33906189827805816	0.006678695720211368	0.19190035104422698	0.4014913349773868	-0.015476749849451412	0.23982110602909187	0.3517091144228263	-0.04052217286608662	0.4751211396874714	0.15818989673127187	0.8984549855466675	0.35058590362818276	0.18108834297359702	0.46790620084810663	0.3965234594456184	0.19598409149138862	0.03914830345492872	0.42108895213324826	0.15751983304001502	-0.0054888410893806725	0.22802528230923427	0.12041953646091938	0.024140220416335317	0.24493778307517253	0.2157170979526525	-0.016931357126384494	0.4686137666546098	0.29541849662662256	1.5374229670987445	0.35233679203666013	0.28759433023854397	1.7881919216191071	0.31024035570568154	0.2523602128546016	1.6569698716120642	0.2303913779380629	0.4571331920814028	1.4520871134655224	0.2775262337507437	0.3615360127105606	1.2234645848162915	0.15351828710846194	0.2282427004762657	1.4437691887947177	0.16811284219756886	0.20211114197895225	1.5359621632280098	0.19836418054862137	0.1907647447963071	1.5344065360601227	0.20082786985806156	0.17281004152804108	1.4907266111338637	0.16546974826459473	0.14797878549614446	1.4394362085846157	0.4657016094794705	0.08653047617836346	1.1471875043567559	0.4234140636115657	0.03291405524263003	0.8935344500225569	0.3764361632255128	0.02855907776597722	0.7855636783503988	0.33441919667317366	0.017900266415251134	0.7599451039926102	0.33263590272926913	0.02417503039771495	0.767433147837489	0.3562037152094681	
185	3.135593220338983	0.3723640091220887	0.8997050554072131	0.3025161903559945	0.3774018171223825	0.4771758764317672	0.32968550417268305	0.37578203665073656	0.026243298734551564	0.41766684652769215	0.3398875824684896	0.005289808162126073	0.19437929677501167	0.4016619021722667	-0.015805477841211772	0.24090959698209655	0.35173151333365976	-0.04052470897660706	0.4751135701425802	0.15814995254315534	0.8971580310642758	0.3513776558094598	0.180982789967538	0.46797773771918016	0.3963542533554873	0.19590236686701212	0.03941357565573014	0.42077882013417617	0.15743037168144702	-0.004835638751897329	0.22784705157051388	0.12038319460039443	0.023444972490802064	0.2448347140859516	0.21570568795928807	-0.01685251212695593	0.46861484291651273	0.2954394690939907	1.537315168757232	0.3524031872299271	0.2857236798888263	1.786606563294291	0.3056185737977781	0.2519729178089014	1.6556917260946966	0.2286541819714259	0.4579185690853647	1.4502469844241115	0.2792714227104983	0.3664600564050874	1.217245085605681	0.16057469790938408	0.22831497911163867	1.432806763867229	0.17325101286267214	0.1994062156449941	1.5256181928526489	0.20077498939962418	0.18753056919949135	1.5228341025928875	0.20434400280318976	0.16948061889226015	1.4782689649980154	0.17523872814195074	0.14804967409305653	1.4378795221414267	0.46479682811708556	0.08593794056899404	1.1477330813330235	0.42234049987520494	0.033867641050146925	0.8936814632020201	0.3789251190572161	0.02975638717836366	0.7851276340578409	0.3360697498436193	0.018553044343423516	0.7593888255549976	0.335480143504675	0.024788112889528906	0.7668017522262024	0.3591001926830277	
186	3.152542372881356	0.372617442403008	0.899345244146384	0.30143496402675113	0.3771938662859094	0.4771756181360977	0.3294723960363631	0.3757760885567	0.026251778533654423	0.4176946618284347	0.34066842233563666	0.0039676909101258075	0.19669860379590262	0.40167130944406526	-0.015819387838125906	0.24135106219288197	0.3516270744554497	-0.04051770590377425	0.4750368843677516	0.15822805372577653	0.8959755819763069	0.35184719047789337	0.1808188054737287	0.4679290262875898	0.39633283289629107	0.1958548435887224	0.0396087315902462	0.4206352949065526	0.15742324514497397	-0.00461244164537169	0.22784756671580872	0.12031608805099175	0.022028468000268784	0.2446725820758256	0.21568705940205826	-0.01675481767171641	0.46861454141208597	0.2954140239875679	1.537226446811679	0.3523064669560758	0.28413341649225565	1.785001861657414	0.30171687590183105	0.25159409067148314	1.6548580075723915	0.22760041249428464	0.4586954871421769	1.4482770259011002	0.2806407572040936	0.3718661241259955	1.2106024938705953	0.16933903870119005	0.23010319725974165	1.4215158710339895	0.1788599111176188	0.1972053540377357	1.5136421153281463	0.20210105517576732	0.18414499750731161	1.5096669930404956	0.20721120085494832	0.1661339238596658	1.4675469995909771	0.18710360682935767	0.14767009158312822	1.4366395485886416	0.46283755927905	0.08529875431420775	1.1485877908403161	0.42091795782798275	0.03507111294307009	0.8936875789153801	0.38249822299466496	0.031155820818406253	0.7838537846042534	0.33868734985849075	0.019499385907113875	0.7582591404267013	0.3387707250295658	0.0257401194009175	0.7662611952532352	0.36214211223578124	
187	3.169491525423729	0.3728010696165146	0.898662213288014	0.3004596408322858	0.3771569473238029	0.47725582812015704	0.3291374549019546	0.37576519505817657	0.026293955443079456	0.4177557376079096	0.34128460362313784	0.002950255995193725	0.1984466370506183	0.4016569265986162	-0.01577149885087069	0.24134362128312023	0.35141886672027867	-0.04045226852692333	0.47490774023583743	0.15837920649586762	0.8949299489660909	0.3519325641355806	0.18070768009421978	0.4678555047307633	0.39631791697731356	0.19582732897534616	0.03975608244409342	0.42060180946168035	0.15752691374547761	-0.005017427226561011	0.22808747003357863	0.12023047865983577	0.02032461238091965	0.24449529414521975	0.21566049401702872	-0.01663164237807335	0.46860402624813274	0.29536132546049	1.5370715547971256	0.35210309367627857	0.2828311496644971	1.7835656174185734	0.29893338801408204	0.2514150920523583	1.654475036622635	0.2267718809892425	0.4595240907218304	1.446173320452742	0.2814907496549907	0.37756586882718135	1.2034495003036496	0.17908691883278582	0.23368966751694398	1.4106758034425204	0.18538150000972967	0.19594739992958277	1.5012499114350024	0.20266904593482718	0.18141449484261102	1.4962108224692265	0.2092091520607599	0.1636485724746617	1.4580626961093393	0.19962351364919714	0.14705621705526442	1.4358821516808544	0.4601252721130614	0.08477085797194586	1.1496016318931113	0.41963446334467625	0.03669295839554243	0.8932626224659402	0.3873192849141014	0.03264058561072826	0.7819174796508439	0.3418146561826074	0.020683119337461395	0.7567025524794389	0.3421621800869376	0.02692136112742234	0.7658940269343274	0.3653202135377962	
188	3.1864406779661016	0.3729465936598227	0.8976754385284336	0.29957748587485145	0.3772908127621013	0.4773775443132098	0.3287121414543524	0.3757482930883399	0.02636597367028208	0.41784498336631415	0.34162246877526226	0.0026674381240333646	0.19944548247972008	0.4016571142830943	-0.015730632670149174	0.24116773207810888	0.35117176730754124	-0.04029229962699379	0.47474134959316244	0.15856629710418713	0.8940036376376745	0.351718120883841	0.18073722901287	0.4678678394550218	0.3962049394413984	0.1958076236009861	0.039854723743402765	0.420620475699173	0.15771396026303888	-0.005988159960742645	0.22850529638487668	0.12013776268087926	0.018794674023627483	0.24432311235455698	0.21562724482354856	-0.016475867932106345	0.4685841173478823	0.29529546314588384	1.536773247031771	0.35187438068460186	0.2817801058940317	1.7824962671725648	0.29737847666782746	0.2514431285489463	1.6545407010864126	0.2259010377055988	0.46044952952890206	1.4441225758797505	0.2817616539002108	0.38339415502165713	1.19588639562133	0.18887367835414326	0.23883348890354905	1.400765746348947	0.19338027140979147	0.1960192491073588	1.4897383404845341	0.20303077929912688	0.18000089352280757	1.4839343466462072	0.21103967058652184	0.1628101372007506	1.4484901780926525	0.2115501980321844	0.14636339374574478	1.435649498208955	0.45714456610792714	0.08447089462344683	1.1505468199227262	0.4189012949417702	0.03870861356056894	0.8922690671357044	0.3931084204405311	0.03411625142432977	0.7795476377274456	0.34515926211144454	0.021955881379320308	0.7550248573445532	0.3451384067132003	0.028012310419316892	0.7657722139861892	0.3683077153712378	
